<svg width="36" height="36" viewBox="0 0 36 36" fill="none" xmlns="http://www.w3.org/2000/svg">
<rect width="36" height="36" rx="18" fill="white"/>
<path d="M15.1061 11.448C15.7041 9.698 18.1221 9.645 18.8311 11.289L18.8911 11.449L19.6981 13.809C19.8831 14.3502 20.1819 14.8455 20.5746 15.2614C20.9672 15.6773 21.4444 16.0042 21.9741 16.22L22.1911 16.301L24.5511 17.107C26.3011 17.705 26.3541 20.123 24.7111 20.832L24.5511 20.892L22.1911 21.699C21.6497 21.8838 21.1542 22.1826 20.7381 22.5753C20.3221 22.9679 19.995 23.4452 19.7791 23.975L19.6981 24.191L18.8921 26.552C18.2941 28.302 15.8761 28.355 15.1681 26.712L15.1061 26.552L14.3001 24.192C14.1153 23.6506 13.8165 23.1551 13.4239 22.739C13.0312 22.3229 12.5539 21.9959 12.0241 21.78L11.8081 21.699L9.44813 20.893C7.69713 20.295 7.64413 17.877 9.28813 17.169L9.44813 17.107L11.8081 16.301C12.3494 16.1161 12.8446 15.8172 13.2606 15.4246C13.6765 15.0319 14.0033 14.5547 14.2191 14.025L14.3001 13.809L15.1061 11.448ZM24.9991 8C25.1862 8 25.3695 8.05248 25.5283 8.15147C25.687 8.25046 25.8148 8.392 25.8971 8.56L25.9451 8.677L26.2951 9.703L27.3221 10.053C27.5096 10.1167 27.674 10.2346 27.7944 10.3918C27.9148 10.549 27.9858 10.7384 27.9984 10.936C28.011 11.1336 27.9647 11.3305 27.8653 11.5018C27.766 11.673 27.618 11.8109 27.4401 11.898L27.3221 11.946L26.2961 12.296L25.9461 13.323C25.8823 13.5104 25.7643 13.6747 25.6071 13.795C25.4498 13.9153 25.2604 13.9862 25.0628 13.9987C24.8652 14.0113 24.6683 13.9648 24.4971 13.8654C24.3259 13.7659 24.1881 13.6179 24.1011 13.44L24.0531 13.323L23.7031 12.297L22.6761 11.947C22.4886 11.8833 22.3243 11.7654 22.2039 11.6082C22.0835 11.451 22.0125 11.2616 21.9999 11.064C21.9872 10.8664 22.0335 10.6695 22.1329 10.4982C22.2323 10.327 22.3803 10.1891 22.5581 10.102L22.6761 10.054L23.7021 9.704L24.0521 8.677C24.1196 8.47943 24.2471 8.30791 24.417 8.1865C24.5868 8.06509 24.7904 7.99987 24.9991 8Z" fill="black"/>
</svg>
