<svg width="1465" height="1977" viewBox="0 0 1465 1977" fill="none" xmlns="http://www.w3.org/2000/svg">
<path d="M1464.38 61.6124C1464.72 28.2376 1437.76 1 1404.38 1H719C685.863 1 659 27.8629 659 61V1917C659 1950.14 685.863 1977 719 1977H1175C1208.14 1977 1235 1950.14 1235 1917V1883.84C1235 1850.71 1261.86 1823.84 1295 1823.84H1305C1338.14 1823.84 1365 1796.98 1365 1763.84V1578.94C1365 1555.53 1383.97 1536.56 1407.38 1536.56V1536.56C1430.62 1536.56 1449.52 1517.85 1449.76 1494.61L1464.38 61.6124Z" fill="#EDF2F4"/>
<path fill-rule="evenodd" clip-rule="evenodd" d="M60 1.70654C26.7251 1.70654 -0.194519 28.7849 0.00105901 62.0593L8.40043 1491.07C8.54887 1516.32 29.0643 1536.72 54.3202 1536.72C79.6814 1536.72 100.241 1557.28 100.241 1582.64L100.241 1763.9C100.241 1797.03 127.104 1823.9 160.241 1823.9L171.014 1823.9C204.151 1823.9 231.014 1850.76 231.014 1883.9L231.014 1917C231.014 1950.14 257.876 1977 291.014 1977L750.438 1977C783.575 1977 810.438 1950.14 810.438 1917L810.438 61.7065C810.438 28.5695 783.575 1.70654 750.438 1.70654L60 1.70654Z" fill="#EDF2F4"/>
</svg>
