<svg width="24" height="24" viewBox="0 0 24 24" fill="none" xmlns="http://www.w3.org/2000/svg">
<path d="M4.34725 4L20.3472 20M16.8472 16.756C15.4942 17.485 13.9653 18 12.3472 18C8.81725 18 5.71325 15.548 3.93425 13.779C3.46425 13.312 3.22925 13.079 3.08025 12.62C2.97325 12.293 2.97325 11.707 3.08025 11.38C3.23025 10.921 3.46525 10.687 3.93525 10.22C4.83225 9.328 6.06525 8.264 7.51925 7.427M19.8472 14.634C20.1802 14.341 20.4853 14.052 20.7593 13.78L20.7623 13.777C21.2303 13.311 21.4653 13.077 21.6143 12.621C21.7213 12.294 21.7213 11.707 21.6143 11.38C21.4643 10.922 21.2303 10.688 20.7603 10.221C18.9803 8.452 15.8782 6 12.3472 6C12.0092 6 11.6759 6.02133 11.3472 6.064M13.6702 13.5C13.2829 13.842 12.7782 14.0209 12.262 13.999C11.7457 13.9772 11.2579 13.7564 10.9008 13.3829C10.5437 13.0094 10.3451 12.5122 10.3464 11.9955C10.3478 11.4787 10.5492 10.9826 10.9082 10.611" stroke="#3D3D3D" stroke-width="2" stroke-linecap="round" stroke-linejoin="round"/>
<path d="M4.34725 4L20.3472 20M16.8472 16.756C15.4942 17.485 13.9653 18 12.3472 18C8.81725 18 5.71325 15.548 3.93425 13.779C3.46425 13.312 3.22925 13.079 3.08025 12.62C2.97325 12.293 2.97325 11.707 3.08025 11.38C3.23025 10.921 3.46525 10.687 3.93525 10.22C4.83225 9.328 6.06525 8.264 7.51925 7.427M19.8472 14.634C20.1802 14.341 20.4853 14.052 20.7593 13.78L20.7623 13.777C21.2303 13.311 21.4653 13.077 21.6143 12.621C21.7213 12.294 21.7213 11.707 21.6143 11.38C21.4643 10.922 21.2303 10.688 20.7603 10.221C18.9803 8.452 15.8782 6 12.3472 6C12.0092 6 11.6759 6.02133 11.3472 6.064M13.6702 13.5C13.2829 13.842 12.7782 14.0209 12.262 13.999C11.7457 13.9772 11.2579 13.7564 10.9008 13.3829C10.5437 13.0094 10.3451 12.5122 10.3464 11.9955C10.3478 11.4787 10.5492 10.9826 10.9082 10.611" stroke="black" stroke-opacity="0.2" stroke-width="2" stroke-linecap="round" stroke-linejoin="round"/>
</svg>
