<svg width="24" height="24" viewBox="0 0 24 24" fill="none" xmlns="http://www.w3.org/2000/svg">
<path d="M12 9C11.2405 9 10.5121 9.31607 9.9751 9.87868C9.43807 10.4413 9.13636 11.2044 9.13636 12C9.13636 12.7956 9.43807 13.5587 9.9751 14.1213C10.5121 14.6839 11.2405 15 12 15C12.7595 15 13.4879 14.6839 14.0249 14.1213C14.5619 13.5587 14.8636 12.7956 14.8636 12C14.8636 11.2044 14.5619 10.4413 14.0249 9.87868C13.4879 9.31607 12.7595 9 12 9ZM12 4.5C7.22727 4.5 3.15136 7.61 1.5 12C3.15136 16.39 7.22727 19.5 12 19.5C16.7727 19.5 20.8486 16.39 22.5 12C20.8486 7.61 16.7727 4.5 12 4.5ZM20.4191 12C19.6476 13.6503 18.4496 15.0407 16.9613 16.0133C15.473 16.9858 13.7541 17.5013 12 17.5013C10.2459 17.5013 8.52703 16.9858 7.03873 16.0133C5.55043 15.0407 4.35242 13.6503 3.58091 12C4.35242 10.3497 5.55043 8.95925 7.03873 7.98675C8.52703 7.01424 10.2459 6.49868 12 6.49868C13.7541 6.49868 15.473 7.01424 16.9613 7.98675C18.4496 8.95925 19.6476 10.3497 20.4191 12Z" fill="#3D3D3D"/>
</svg>
