<svg width="24" height="24" viewBox="0 0 24 24" fill="none" xmlns="http://www.w3.org/2000/svg">
<g id="flight 2" clip-path="url(#clip0_1346_7301)">
<g id="Group">
<g id="Group_2">
<path id="Vector" d="M21.7501 17.325C21.6376 17.2125 21.4876 17.175 21.3751 17.175C21.2626 17.175 21.0751 17.2125 21.0001 17.325L20.7376 17.5875L20.8876 19.05L21.7501 18.15C21.9751 17.925 21.9751 17.55 21.7501 17.325ZM20.4376 21.975L19.5751 14.7375V14.7L19.3126 12.3L18.9751 10.0125C18.9376 9.67503 18.5626 9.56253 18.3001 9.78753L14.2501 13.5C14.1001 13.65 14.0626 13.8375 14.1751 14.025C15.7501 16.4625 17.9251 20.475 19.2751 23.7375C19.3126 23.775 19.3126 23.8125 19.3501 23.85C19.4626 23.9625 19.6501 24 19.8001 23.85C20.2876 23.3625 20.5126 22.6875 20.4376 21.975ZM10.0501 22.2375L9.03761 18.75C8.96261 18.525 8.70011 18.4125 8.47511 18.4875C8.10011 18.675 7.65011 18.825 7.20011 18.9C6.93761 18.9375 6.78761 19.275 6.93761 19.5L9.11261 22.7625C9.26261 22.9875 9.56261 22.9875 9.71261 22.8375L9.90011 22.65C10.0501 22.5 10.0876 22.35 10.0501 22.2375ZM7.12511 16.6125C7.08761 16.575 7.01261 16.5375 6.93761 16.5375C6.86261 16.5375 6.78761 16.575 6.75011 16.6125L4.50011 18.9C4.38761 19.0125 4.38761 19.1625 4.50011 19.2375C4.57511 19.35 4.76261 19.35 4.83761 19.2375L7.12511 16.95C7.23761 16.875 7.23761 16.6875 7.12511 16.6125ZM5.02511 14.8125L1.76261 14.025C1.61261 13.9875 1.50011 14.025 1.38761 14.1375L1.16261 14.3625C0.975107 14.55 1.01261 14.85 1.20011 14.9625L4.20011 16.9875C4.46261 17.1375 4.76261 17.025 4.83761 16.725C4.91261 16.275 5.10011 15.7875 5.28761 15.375C5.40011 15.15 5.28761 14.8875 5.02511 14.8125ZM13.7626 5.17503L11.5876 4.83753L9.18761 4.57503L1.95011 3.71253C1.27511 3.63753 0.600107 3.86253 0.112607 4.35003C-0.0373934 4.50003 0.000106592 4.68753 0.112607 4.80003C0.150107 4.83753 0.150107 4.83753 0.225107 4.87503C3.26261 6.11253 7.16261 8.28753 9.71261 9.93753C9.86261 10.05 10.0876 10.0125 10.2001 9.86253L13.9876 5.85003C14.2126 5.62503 14.0626 5.25003 13.7626 5.17503ZM6.60011 2.36253C6.37511 2.13753 6.00011 2.13753 5.77511 2.36253L4.87511 3.22503L6.30011 3.37503L6.56261 3.11253C6.67511 3.00003 6.71261 2.85003 6.71261 2.73753C6.75011 2.62503 6.71261 2.47503 6.60011 2.36253ZM11.6251 3.11253C11.4001 2.88753 11.0251 2.88753 10.8001 3.11253L10.0501 3.82503L11.4751 3.97503L11.5876 3.86253C11.8501 3.67503 11.8501 3.33753 11.6251 3.11253ZM23.7001 0.375027C22.8751 -0.449973 20.1751 0.562527 18.8251 1.87503L6.48761 14.9625C6.22511 15.225 5.88761 15.8625 5.73761 16.5375L6.22511 16.05C6.63761 15.6375 7.31261 15.6375 7.72511 16.05C8.13761 16.4625 8.13761 17.1375 7.72511 17.55L7.12511 18.075C7.83761 17.925 8.55011 17.55 8.85011 17.2875L22.1626 5.13753C23.1751 4.16253 24.0001 2.43753 24.0001 1.27503C24.0001 0.862527 23.8876 0.562527 23.7001 0.375027ZM21.9751 3.60003C21.9376 3.60003 21.9376 3.60003 21.9751 3.60003C21.7501 3.60003 21.5626 3.45003 21.5251 3.26253C21.4876 3.11253 21.3751 2.66253 20.8126 2.62503H20.7001C20.4751 2.62503 20.2876 2.43753 20.3251 2.21253C20.3626 1.98753 20.5126 1.80003 20.7376 1.80003H20.8501C21.6376 1.83753 22.2001 2.36253 22.3126 3.15003C22.3501 3.37503 22.1626 3.56253 21.9751 3.60003ZM21.0376 12.3C20.9251 12.1875 20.7751 12.15 20.6626 12.15C20.5501 12.15 20.3626 12.225 20.2876 12.3L20.1751 12.4125L20.3251 13.8375L21.0376 13.0875C21.2251 12.9 21.2251 12.525 21.0376 12.3Z" fill="#3D3D3D"/>
</g>
</g>
</g>
<defs>
<clipPath id="clip0_1346_7301">
<rect width="24" height="24" fill="white"/>
</clipPath>
</defs>
</svg>
