<svg width="24" height="24" viewBox="0 0 24 24" fill="none" xmlns="http://www.w3.org/2000/svg">
<g id="hotel 1">
<g id="Group">
<path id="Vector" d="M14.7367 2.47718L13.6582 3.5322L13.9132 5.02222C13.9544 5.26522 13.7683 5.48972 13.5187 5.48972C13.3833 5.48972 13.4536 5.50777 12.0002 4.74071L10.6682 5.44372C10.3757 5.59813 10.0318 5.34932 10.0872 5.02222L10.3422 3.5322L9.26366 2.47718C9.02625 2.24518 9.15925 1.84287 9.48566 1.79517L10.9747 1.57817L11.6412 0.223147C11.7877 -0.0741573 12.2125 -0.0746073 12.3592 0.223147L13.0257 1.57817L14.5147 1.79517C14.8417 1.84297 14.9736 2.24568 14.7367 2.47718ZM7.82639 4.52426L7.77913 4.24876C7.96409 4.06845 8.17134 3.92315 8.08049 3.6436C7.98969 3.36419 7.73473 3.36804 7.48098 3.33114L7.35728 3.08049C7.21088 2.78378 6.78642 2.78358 6.63987 3.08049L6.51617 3.33114C6.26056 3.36829 6.00746 3.36399 5.91666 3.6436C5.82586 3.923 6.03441 4.06975 6.21801 4.24876L6.17076 4.52426C6.11486 4.85031 6.45807 5.09997 6.75117 4.94592L6.99852 4.81581C7.25178 4.94902 7.30703 4.99187 7.43198 4.99187C7.67878 4.99187 7.86849 4.76956 7.82639 4.52426ZM4.32633 6.52429L4.27908 6.24878C4.46404 6.06848 4.67129 5.92318 4.58044 5.64363C4.48964 5.36422 4.23468 5.36807 3.98093 5.33117L3.85723 5.08052C3.71083 4.78381 3.28637 4.78361 3.13982 5.08052L3.01611 5.33117C2.76051 5.36832 2.50741 5.36402 2.41661 5.64363C2.3258 5.92303 2.53436 6.06978 2.71796 6.24878L2.67071 6.52429C2.61481 6.85034 2.95801 7.1 3.25112 6.94595L3.49847 6.81584C3.75173 6.94905 3.80698 6.9919 3.93193 6.9919C4.17873 6.9919 4.36843 6.76959 4.32633 6.52429ZM17.8295 4.52426L17.7822 4.24876C17.9672 4.06845 18.1744 3.92315 18.0836 3.6436C17.9928 3.36419 17.7378 3.36804 17.4841 3.33114C17.3697 3.09939 17.2957 2.85754 17.0017 2.85754C16.708 2.85754 16.6328 3.10119 16.5193 3.33114L16.2427 3.37134C15.9153 3.41894 15.784 3.82255 16.021 4.05365L16.2212 4.24876C16.1775 4.50346 16.0952 4.74271 16.3331 4.91547C16.5707 5.08817 16.7747 4.93517 17.0017 4.81581C17.255 4.94902 17.3102 4.99187 17.4352 4.99187C17.6819 4.99187 17.8715 4.76956 17.8295 4.52426ZM21.3295 6.52429L21.2823 6.24878C21.4672 6.06848 21.6745 5.92318 21.5836 5.64363C21.4928 5.36422 21.2379 5.36807 20.9841 5.33117C20.8698 5.09942 20.7957 4.85756 20.5018 4.85756C20.208 4.85756 20.1329 5.10122 20.0194 5.33117L19.7428 5.37137C19.4154 5.41897 19.284 5.82258 19.5211 6.05368L19.7212 6.24878C19.6775 6.50349 19.5953 6.74274 19.8331 6.91549C20.0708 7.0882 20.2748 6.93519 20.5018 6.81584C20.755 6.94905 20.8103 6.9919 20.9352 6.9919C21.1819 6.9919 21.3716 6.76959 21.3295 6.52429ZM6.10806 23.5886C6.11491 23.8139 5.93366 24 5.7082 24H3.60002C2.71636 24 2 23.2836 2 22.4V14.3999C2 13.5162 2.71636 12.7998 3.60002 12.7998H5.70005C5.92096 12.7998 6.10006 12.9793 6.10006 13.2002C6.09961 20.7333 6.08701 22.8984 6.10806 23.5886ZM4.75004 16.7999C4.75004 16.579 4.57094 16.3999 4.35003 16.3999C4.12913 16.3999 3.95003 16.579 3.95003 16.7999V18.4999C3.95003 18.7208 4.12913 18.8999 4.35003 18.8999C4.57094 18.8999 4.75004 18.7208 4.75004 18.4999V16.7999ZM22.0003 14.3999V22.4C22.0003 23.2836 21.2839 24 20.4003 24H18.2924C18.067 24 17.8857 23.8138 17.8926 23.5885C17.9137 22.8996 17.9007 20.7377 17.9002 13.2002C17.9002 12.9793 18.0793 12.7998 18.3002 12.7998H20.4003C21.284 12.7998 22.0003 13.5162 22.0003 14.3999ZM20.0503 16.7999C20.0503 16.579 19.8712 16.3999 19.6503 16.3999C19.4294 16.3999 19.2503 16.579 19.2503 16.7999V18.4999C19.2503 18.7208 19.4294 18.8999 19.6503 18.8999C19.8712 18.8999 20.0503 18.7208 20.0503 18.4999V16.7999ZM11.0001 24H13.0002C13.2211 24 13.4002 23.8209 13.4002 23.6V19.8499C13.4002 19.629 13.2211 19.4499 13.0002 19.4499H11.0001C10.7792 19.4499 10.6001 19.629 10.6001 19.8499V23.6C10.6001 23.8209 10.7792 24 11.0001 24ZM17.1002 8.69977V23.6C17.1002 23.8209 16.9211 24 16.7002 24H14.6002C14.3793 24 14.2002 23.8209 14.2002 23.6V19.0499C14.2002 18.829 14.0211 18.6499 13.8002 18.6499H10.2001C9.97922 18.6499 9.80011 18.829 9.80011 19.0499V23.6C9.80011 23.8209 9.62101 24 9.40011 24H7.30008C7.07917 24 6.90007 23.8209 6.90007 23.6V8.69977C6.90007 7.81611 7.61643 7.09975 8.50009 7.09975H15.5002C16.3839 7.09975 17.1002 7.81611 17.1002 8.69977ZM14.0002 15.3999C14.0002 15.179 13.8211 14.9999 13.6002 14.9999H10.4001C10.1792 14.9999 10.0001 15.179 10.0001 15.3999C10.0001 15.6208 10.1792 15.7999 10.4001 15.7999H13.6002C13.8211 15.7999 14.0002 15.6208 14.0002 15.3999ZM14.7002 11.5498C14.7002 11.3289 14.5211 11.1498 14.3002 11.1498H9.70011C9.47921 11.1498 9.30011 11.3289 9.30011 11.5498C9.30011 11.7707 9.47921 11.9498 9.70011 11.9498H14.3002C14.5211 11.9498 14.7002 11.7707 14.7002 11.5498Z" fill="black"/>
</g>
</g>
</svg>
