<svg width="111" height="119" viewBox="0 0 111 119" fill="none" xmlns="http://www.w3.org/2000/svg">
<circle cx="56.8944" cy="56.6288" r="48.8632" fill="#5552FF"/>
<g clip-path="url(#clip0_927_3433)">
<path d="M67.7555 51.6045V49.466C67.7555 43.6605 63.0492 38.9541 57.2436 38.9541C51.438 38.9541 46.7317 43.6605 46.7317 49.466V51.6045C43.9986 52.7973 42.2305 55.4943 42.2266 58.4762V67.4865C42.2315 71.6312 45.5903 74.9901 49.735 74.995H64.7521C68.8968 74.9901 72.2556 71.6312 72.2606 67.4865V58.4762C72.2567 55.4943 70.4886 52.7973 67.7555 51.6045ZM58.7453 64.4831C58.7453 65.3125 58.073 65.9848 57.2436 65.9848C56.4142 65.9848 55.7419 65.3125 55.7419 64.4831V61.4797C55.7419 60.6503 56.4142 59.978 57.2436 59.978C58.073 59.978 58.7453 60.6503 58.7453 61.4797V64.4831ZM64.7521 50.9678H49.735V49.4661C49.735 45.3193 53.0967 41.9575 57.2436 41.9575C61.3905 41.9575 64.7521 45.3192 64.7521 49.4661V50.9678Z" fill="white"/>
</g>
<circle cx="105.409" cy="12.2695" r="5.19821" fill="#235DFF"/>
<circle cx="14.2691" cy="11.23" r="6.23785" fill="#235DFF"/>
<circle cx="43.033" cy="115.541" r="3.11893" fill="#235DFF"/>
<circle cx="102.978" cy="100.64" r="2.07928" fill="#235DFF"/>
<circle cx="107.491" cy="73.9564" r="1.73274" fill="#235DFF"/>
<circle cx="9.76736" cy="99.5994" r="3.11893" fill="#235DFF"/>
<circle cx="81.149" cy="106.531" r="1.03964" fill="#235DFF"/>
<circle cx="76.6418" cy="2.91327" r="2.07928" fill="#235DFF"/>
<circle cx="1.79244" cy="60.4389" r="1.38619" fill="#235DFF"/>
<defs>
<clipPath id="clip0_927_3433">
<rect width="36.0409" height="36.0409" fill="white" transform="translate(39.2188 38.9541)"/>
</clipPath>
</defs>
</svg>
