<svg width="60" height="60" viewBox="0 0 60 60" fill="none" xmlns="http://www.w3.org/2000/svg">
<rect width="60" height="60" rx="30" fill="#ECF0FF"/>
<path d="M16.4859 37.3213C16.1678 37.3213 15.8857 37.2444 15.6395 37.0905C15.3932 36.9366 15.2701 36.6801 15.2701 36.321C15.2701 35.7568 15.3881 35.1823 15.6241 34.5975C15.8703 34.0127 16.1678 33.4382 16.5166 32.8739C16.8757 32.2994 17.2297 31.7403 17.5785 31.1965C17.9375 30.6528 18.2351 30.1347 18.471 29.6422C18.7173 29.1498 18.8404 28.6933 18.8404 28.2726C18.8404 27.9341 18.7583 27.7648 18.5941 27.7648C18.4813 27.7648 18.3531 27.8571 18.2094 28.0418C18.0658 28.2162 17.9632 28.4778 17.9016 28.8266L17.7324 28.7958C17.7324 28.2111 17.8709 27.7186 18.1479 27.3185C18.4249 26.9081 18.7788 26.6004 19.2097 26.3952C19.6406 26.19 20.0817 26.0874 20.5332 26.0874C21.0564 26.0874 21.5437 26.2362 21.9951 26.5337C22.4568 26.8312 22.7748 27.3031 22.9492 27.9495C23.021 28.2059 23.0723 28.4932 23.1031 28.8112C23.1441 29.1293 23.1698 29.4063 23.18 29.6422C23.1903 29.8679 23.1954 29.9808 23.1954 29.9808C23.216 30.8118 23.2313 31.5146 23.2416 32.0891C23.2621 32.6636 23.2929 33.1458 23.3339 33.5356C23.375 33.9255 23.4314 34.2538 23.5032 34.5205C23.575 34.777 23.6674 34.9873 23.7802 35.1515C23.9033 35.3054 24.0572 35.3823 24.2419 35.3823C24.4163 35.3823 24.5651 35.331 24.6882 35.2284C24.8215 35.1258 24.9087 35.0284 24.9498 34.936L25.0575 35.013C25.0575 35.4849 24.9652 35.8953 24.7805 36.2441C24.5958 36.5929 24.3547 36.8597 24.0572 37.0443C23.7597 37.229 23.4468 37.3213 23.1185 37.3213C22.8005 37.3213 22.4875 37.229 22.1798 37.0443C21.8822 36.8494 21.6206 36.5519 21.3949 36.1518C21.1692 35.7516 21.0205 35.2336 20.9487 34.5975C20.6306 34.577 20.3177 34.5616 20.0099 34.5513C19.7124 34.5308 19.4405 34.5205 19.1943 34.5205C19.0302 34.5205 18.8711 34.5257 18.7173 34.5359C18.5736 34.5359 18.43 34.5411 18.2864 34.5513C18.194 34.8693 18.1171 35.1925 18.0555 35.5208C18.0042 35.8389 17.9786 36.1518 17.9786 36.4595C17.9786 36.6955 17.8247 36.9007 17.5169 37.0751C17.2091 37.2392 16.8655 37.3213 16.4859 37.3213ZM18.7942 33.1201C19.0507 33.0483 19.3226 33.0022 19.6098 32.9816C19.8971 32.9509 20.2049 32.9355 20.5332 32.9355H20.8717C20.8512 32.1763 20.8204 31.3966 20.7794 30.5964C20.7486 29.7961 20.6204 29.0523 20.3947 28.365C20.3126 29.1036 20.1074 29.8782 19.7791 30.6887C19.4508 31.4992 19.1225 32.3097 18.7942 33.1201ZM27.7405 37.3213C27.4122 37.3213 27.0993 37.2495 26.8017 37.1059C26.5145 36.952 26.2785 36.716 26.0938 36.398C25.9194 36.0799 25.8322 35.6747 25.8322 35.1823C25.8322 34.9155 25.8579 34.5667 25.9092 34.1358C25.9605 33.7049 26.0272 33.233 26.1092 32.72C26.2016 32.2071 26.2939 31.6941 26.3862 31.1811C26.1811 31.1914 25.981 31.2119 25.7861 31.2427C25.6014 31.2735 25.4167 31.3094 25.2321 31.3504L25.2013 31.2427C25.4065 30.9965 25.6219 30.7862 25.8476 30.6117C26.0733 30.4373 26.3093 30.2937 26.5555 30.1809C26.6889 29.5037 26.8017 28.919 26.8941 28.4265C26.9864 27.9238 27.0326 27.6263 27.0326 27.534C27.0326 27.3595 27.1659 27.2159 27.4327 27.1031C27.7097 26.9902 28.0175 26.9338 28.356 26.9338C28.6535 26.9338 28.9305 26.9902 29.187 27.1031C29.4538 27.2159 29.6333 27.4057 29.7256 27.6725C29.6641 27.734 29.5769 27.9648 29.464 28.365C29.3512 28.7548 29.2332 29.2319 29.1101 29.7961C29.305 29.8064 29.5051 29.8166 29.7102 29.8269C29.9154 29.8372 30.1258 29.8526 30.3412 29.8731C30.3617 29.9346 30.3771 30.0013 30.3874 30.0731C30.3976 30.1449 30.4028 30.2219 30.4028 30.304C30.4028 30.4579 30.3771 30.6271 30.3258 30.8118C30.2848 30.9862 30.2335 31.1452 30.1719 31.2889C29.9257 31.2683 29.6949 31.2478 29.4794 31.2273C29.264 31.1965 29.0537 31.176 28.8485 31.1657C28.7664 31.6069 28.6894 32.048 28.6176 32.4892C28.5561 32.9303 28.5048 33.3305 28.4637 33.6895C28.433 34.0486 28.4176 34.3307 28.4176 34.5359C28.4176 34.9668 28.4945 35.2541 28.6484 35.3977C28.8126 35.5413 29.0075 35.6131 29.2332 35.6131C29.4384 35.6131 29.623 35.5721 29.7872 35.49C29.9513 35.408 30.0693 35.3105 30.1411 35.1976L30.295 35.2438C30.2335 35.6644 30.0693 36.0338 29.8026 36.3518C29.5358 36.6596 29.2178 36.9007 28.8485 37.0751C28.4791 37.2392 28.1098 37.3213 27.7405 37.3213ZM32.7348 37.3213C32.4578 37.3213 32.1859 37.2546 31.9192 37.1213C31.6627 36.9776 31.4524 36.7519 31.2882 36.4442C31.1241 36.1364 31.042 35.7414 31.042 35.2592C31.042 34.8283 31.0984 34.3256 31.2113 33.7511C31.3344 33.1663 31.4678 32.561 31.6114 31.9352C31.7653 31.3094 31.8986 30.6989 32.0115 30.1039C32.1243 29.5089 32.1756 28.9805 32.1654 28.5188C32.1654 28.0777 32.1141 27.7648 32.0115 27.5801L31.9961 27.534C32.109 27.2057 32.309 26.9492 32.5963 26.7645C32.8835 26.5798 33.1862 26.4875 33.5042 26.4875C33.8633 26.4875 34.1813 26.626 34.4583 26.903C34.7456 27.1697 34.8892 27.6212 34.8892 28.2572C34.8892 28.5958 34.8482 29.001 34.7661 29.473C34.684 29.9346 34.5866 30.4322 34.4737 30.9657C34.3609 31.4889 34.2429 32.007 34.1198 32.52C34.0069 33.0329 33.9095 33.5049 33.8274 33.9358C33.7453 34.3666 33.7043 34.7206 33.7043 34.9976C33.7043 35.2849 33.7453 35.4849 33.8274 35.5978C33.9095 35.7004 34.0018 35.7516 34.1044 35.7516C34.2172 35.7516 34.325 35.7106 34.4276 35.6285C34.5302 35.5362 34.5968 35.4541 34.6276 35.3823L34.7507 35.4131C34.7405 35.7824 34.6327 36.1107 34.4276 36.398C34.2326 36.6852 33.9813 36.9109 33.6735 37.0751C33.376 37.2392 33.0631 37.3213 32.7348 37.3213ZM38.8577 37.3675C38.1087 37.3675 37.488 37.2187 36.9956 36.9212C36.5031 36.6134 36.1338 36.2133 35.8876 35.7209C35.6414 35.2182 35.5183 34.6796 35.5183 34.105C35.5183 33.5613 35.6208 33.0175 35.826 32.4738C36.0415 31.9198 36.3493 31.4171 36.7494 30.9657C37.1597 30.5143 37.6522 30.1501 38.2267 29.8731C38.8115 29.5961 39.4681 29.4576 40.1965 29.4576C41.0993 29.4576 41.7559 29.6628 42.1663 30.0731C42.5869 30.4732 42.7972 30.9606 42.7972 31.5351C42.7972 32.0275 42.6638 32.4841 42.3971 32.9047C42.1406 33.3151 41.7969 33.6485 41.366 33.905C40.9352 34.1512 40.4632 34.2743 39.9503 34.2743C39.6835 34.2743 39.4117 34.2333 39.1347 34.1512C38.8577 34.0691 38.5858 33.9409 38.319 33.7665C38.3703 34.4026 38.555 34.8642 38.873 35.1515C39.1911 35.4387 39.5707 35.5824 40.0118 35.5824C40.3196 35.5824 40.6274 35.5259 40.9352 35.4131C41.2429 35.29 41.5251 35.1361 41.7816 34.9514C42.0483 34.7565 42.2535 34.5513 42.3971 34.3359L42.5048 34.4128C42.5048 34.9463 42.392 35.4028 42.1663 35.7824C41.9508 36.1518 41.6636 36.4544 41.3045 36.6904C40.9454 36.9263 40.5504 37.1007 40.1195 37.2136C39.6989 37.3162 39.2783 37.3675 38.8577 37.3675ZM39.2116 33.2125C39.5399 33.2125 39.8066 33.1201 40.0118 32.9355C40.217 32.7405 40.3709 32.5148 40.4735 32.2584C40.5761 32.0019 40.6274 31.7762 40.6274 31.5812C40.6274 31.3453 40.5607 31.1504 40.4273 30.9965C40.294 30.8323 40.1093 30.7502 39.8733 30.7502C39.6887 30.7502 39.4835 30.8169 39.2578 30.9503C39.0423 31.0837 38.8474 31.3145 38.673 31.6428C38.4986 31.9608 38.3857 32.4071 38.3344 32.9816C38.6627 33.1355 38.9551 33.2125 39.2116 33.2125ZM45.4047 37.3059C45.0251 37.3059 44.6814 37.1572 44.3736 36.8597C44.0658 36.5519 43.912 36.1261 43.912 35.5824C43.912 35.3156 43.9479 35.013 44.0197 34.6744C44.0915 34.3359 44.1684 33.9922 44.2505 33.6434C44.3428 33.2945 44.4249 32.9663 44.4967 32.6585C44.5686 32.3507 44.6045 32.0993 44.6045 31.9044C44.6045 31.6992 44.5634 31.5402 44.4813 31.4274C44.3993 31.3042 44.2916 31.2427 44.1582 31.2427C43.9838 31.2427 43.794 31.3453 43.5888 31.5505L43.4965 31.4889C43.4862 31.3248 43.5221 31.1298 43.6042 30.9041C43.6863 30.6784 43.8094 30.463 43.9735 30.2578C44.1479 30.0424 44.3685 29.8628 44.6352 29.7192C44.902 29.5756 45.22 29.5037 45.5894 29.5037C46.1331 29.5037 46.5332 29.6628 46.7897 29.9808C47.0564 30.2886 47.1898 30.6682 47.1898 31.1196C47.1898 31.2837 47.1744 31.4427 47.1436 31.5966C47.3591 31.2786 47.6258 30.9606 47.9439 30.6425C48.2619 30.3142 48.6107 30.0424 48.9903 29.8269C49.3802 29.6115 49.7803 29.5037 50.1906 29.5037C50.6728 29.5037 51.0011 29.6576 51.1755 29.9654C51.3499 30.2732 51.4371 30.6579 51.4371 31.1196C51.4371 31.5505 51.391 32.0121 51.2986 32.5046C51.2063 32.997 51.114 33.4741 51.0216 33.9358C50.9293 34.3872 50.8831 34.7668 50.8831 35.0745C50.8831 35.4849 51.0011 35.6901 51.2371 35.6901C51.3602 35.6901 51.4679 35.6542 51.5603 35.5824C51.6526 35.5003 51.7142 35.4234 51.7449 35.3515L51.8527 35.3977C51.8527 35.7773 51.7449 36.1107 51.5295 36.398C51.3243 36.6852 51.0627 36.9109 50.7446 37.0751C50.4266 37.229 50.1034 37.3059 49.7751 37.3059C49.375 37.3059 49.0211 37.1674 48.7133 36.8904C48.4055 36.6134 48.2516 36.162 48.2516 35.5362C48.2516 35.1669 48.2978 34.7668 48.3901 34.3359C48.4927 33.905 48.5902 33.4895 48.6825 33.0894C48.7749 32.6893 48.821 32.361 48.821 32.1045C48.821 31.9506 48.7903 31.8326 48.7287 31.7505C48.6774 31.6582 48.5799 31.612 48.4363 31.612C48.2003 31.612 47.9387 31.7197 47.6515 31.9352C47.3745 32.1506 47.1334 32.4379 46.9282 32.797C46.7333 33.156 46.6358 33.551 46.6358 33.9819C46.6358 34.2589 46.6666 34.5257 46.7281 34.7821C46.7999 35.0386 46.8359 35.3156 46.8359 35.6131C46.8359 36.1672 46.6922 36.5878 46.405 36.875C46.1177 37.1623 45.7843 37.3059 45.4047 37.3059Z" fill="#0D0D0D"/>
<path d="M51.3842 17.5047L51.5161 16.9733C51.6257 16.5317 51.3062 16.0988 50.8563 16.0789L50.3148 16.055C49.8212 16.0332 49.3346 16.1732 48.927 16.4544L46.2454 18.3036C43.1298 20.4521 40.3627 23.0758 38.0421 26.0819C37.8634 26.3133 38.1016 26.6363 38.3721 26.5293C41.8852 25.1398 45.1633 23.2087 48.0902 20.8045L50.6093 18.7351C50.9923 18.4206 51.264 17.989 51.3842 17.5047Z" fill="url(#paint0_linear_449_5605)"/>
<path d="M47.4787 18.2642L38.7142 16.6125C38.0554 16.4882 37.6702 17.3346 38.1908 17.7625L42.9513 21.6756L47.4787 18.2642Z" fill="url(#paint1_linear_449_5605)"/>
<path d="M48.4798 19.6204L47.5435 28.5814C47.4731 29.255 46.5607 29.3864 46.3036 28.7601L43.9523 23.0318L48.4798 19.6204Z" fill="url(#paint2_linear_449_5605)"/>
<path d="M39.9504 24.6081L36.76 24.0069C36.5201 23.9618 36.3801 24.2698 36.5694 24.4256L38.3023 25.8499L39.9504 24.6081Z" fill="url(#paint3_linear_449_5605)"/>
<path d="M40.3148 25.1028L39.9739 28.3647C39.9483 28.6099 39.6161 28.6576 39.5226 28.4297L38.6668 26.3447L40.3148 25.1028Z" fill="url(#paint4_linear_449_5605)"/>
<path d="M37.8559 26.5425C37.8559 26.5425 20.3085 39.9287 14.8689 38.3303C9.42935 36.7322 18.1117 30.0558 18.1117 30.0558C18.1117 30.0558 4.65897 38.2879 11.2596 42.56C18.7004 47.3761 37.8559 26.5425 37.8559 26.5425Z" fill="url(#paint5_linear_449_5605)"/>
<defs>
<linearGradient id="paint0_linear_449_5605" x1="44.1675" y1="16.7926" x2="45.28" y2="25.6738" gradientUnits="userSpaceOnUse">
<stop stop-color="#5552FF"/>
<stop offset="1" stop-color="#333199"/>
</linearGradient>
<linearGradient id="paint1_linear_449_5605" x1="42.5033" y1="16.1043" x2="43.1973" y2="21.6448" gradientUnits="userSpaceOnUse">
<stop stop-color="#5552FF"/>
<stop offset="1" stop-color="#333199"/>
</linearGradient>
<linearGradient id="paint2_linear_449_5605" x1="46.0407" y1="19.9259" x2="47.194" y2="29.1332" gradientUnits="userSpaceOnUse">
<stop stop-color="#5552FF"/>
<stop offset="1" stop-color="#333199"/>
</linearGradient>
<linearGradient id="paint3_linear_449_5605" x1="38.1393" y1="23.822" x2="38.3919" y2="25.8386" gradientUnits="userSpaceOnUse">
<stop stop-color="#5552FF"/>
<stop offset="1" stop-color="#333199"/>
</linearGradient>
<linearGradient id="paint4_linear_449_5605" x1="39.4269" y1="25.214" x2="39.8467" y2="28.5655" gradientUnits="userSpaceOnUse">
<stop stop-color="#5552FF"/>
<stop offset="1" stop-color="#333199"/>
</linearGradient>
<linearGradient id="paint5_linear_449_5605" x1="22.928" y1="29.0261" x2="25.0095" y2="41.5371" gradientUnits="userSpaceOnUse">
<stop stop-color="#5552FF"/>
<stop offset="1" stop-color="#333199"/>
</linearGradient>
</defs>
</svg>
