<svg width="108" height="41" viewBox="0 0 108 41" fill="none" xmlns="http://www.w3.org/2000/svg">
<path d="M0.612937 40.439H7.35524L23.2916 9.48283L19.8183 2.72876L0 40.439H0.612937Z" fill="#FE46A2"/>
<path d="M28.6889 21.5847H20.9629L31.6429 40.4398H39.5962L28.6889 21.5847Z" fill="#5552FF"/>
<path d="M50.7097 25.4408C50.5086 26.1196 50.2069 27.0749 49.8047 28.3068C49.4276 29.5135 48.9499 31.0345 48.3717 32.8697C47.8186 34.7049 47.542 35.6854 47.542 35.8111C47.542 35.9116 47.7432 35.9619 48.1454 35.9619C48.5728 35.9619 49.5658 35.6854 51.1245 35.1323C52.6832 34.5541 53.6008 34.265 53.8774 34.265C54.5059 34.265 54.8201 34.6924 54.8201 35.5471C54.8201 36.4019 53.9779 37.4326 52.2935 38.6394C50.6091 39.8209 48.8493 40.4117 47.0141 40.4117C46.2096 40.4117 45.2543 39.9718 44.1481 39.0919C43.042 38.212 42.4889 37.3195 42.4889 36.4145C42.4889 35.6602 42.866 34.0764 43.6202 31.663C44.3995 29.2244 44.9275 27.5525 45.204 26.6475C44.2235 26.924 43.4819 27.0623 42.9791 27.0623C42.4763 27.0623 41.9484 26.7229 41.3953 26.0441C40.8422 25.3402 40.5657 24.674 40.5657 24.0455C40.5657 23.241 42.514 22.5622 46.4107 22.0091C46.8884 19.6711 47.1272 17.6473 47.1272 15.9378C47.1272 15.1836 47.5043 14.8065 48.2585 14.8065C48.9122 14.8065 49.7418 15.2087 50.7474 16.0132C51.7782 16.7926 52.2935 17.5719 52.2935 18.3513C52.2935 19.1055 52.1301 20.1739 51.8033 21.5566C53.01 21.5063 53.9276 21.4812 54.5561 21.4812C56.4417 21.4812 57.3844 21.9086 57.3844 22.7634C57.3844 23.3164 56.8313 23.7941 55.7252 24.1963C54.6441 24.5734 52.9723 24.9883 50.7097 25.4408ZM63.2737 10.3944C63.8771 10.3944 64.6564 10.9475 65.6117 12.0536C66.567 13.1598 67.0447 14.2157 67.0447 15.2213C67.0447 16.2269 66.8939 18.0244 66.5922 20.6139C66.2905 23.1782 65.9763 25.2271 65.6494 26.7606C63.5628 35.8614 62.1047 40.4117 61.275 40.4117C60.722 40.4117 60.0306 39.9718 59.201 39.0919C58.3965 38.1868 57.9943 37.4452 57.9943 36.867C57.9943 36.8167 58.3336 35.5094 59.0124 32.9451C59.6912 30.3808 60.37 27.0875 61.0488 23.065C61.7527 19.0175 62.1047 15.1585 62.1047 11.488C62.1047 10.7589 62.4943 10.3944 63.2737 10.3944ZM84.8675 28.0051C84.8675 29.2369 84.0253 30.3431 82.3409 31.3236C80.6817 32.304 78.9721 32.7943 77.2123 32.7943C75.4525 32.7943 74.007 32.6686 72.8757 32.4172C72.6494 33.096 72.5363 33.7747 72.5363 34.4535C72.5363 35.1323 72.6494 35.6225 72.8757 35.9242C73.1019 36.2008 73.6676 36.339 74.5726 36.339C76.4581 36.339 78.0671 36.1631 79.3995 35.8111C80.7571 35.4591 81.461 35.2831 81.5113 35.2831C82.542 35.2831 83.0574 35.6225 83.0574 36.3013C83.0574 37.2818 82.2404 38.212 80.6062 39.0919C78.9973 39.9718 77.1243 40.4117 74.9874 40.4117C72.8757 40.4117 71.1787 39.7455 69.8965 38.4131C68.6144 37.0807 67.9733 35.5094 67.9733 33.6993C67.9733 31.8641 68.5013 29.9534 69.5572 27.9674C70.6382 25.9813 71.9832 24.322 73.5921 22.9896C75.2011 21.632 76.7975 20.9533 78.3813 20.9533C79.9903 20.9533 81.4736 21.7452 82.8312 23.329C84.1887 24.8877 84.8675 26.4464 84.8675 28.0051ZM80.4931 27.4017C80.4931 27.1503 80.2291 26.7858 79.7012 26.3081C79.1733 25.8304 78.6705 25.5916 78.1928 25.5916C77.7403 25.5916 77.1495 25.931 76.4204 26.6098C75.6913 27.2634 75 28.1182 74.3464 29.1741C74.5726 29.1992 74.8994 29.2118 75.3268 29.2118C78.771 29.2118 80.4931 28.6084 80.4931 27.4017ZM100.264 20.9533C101.571 20.9533 102.715 21.5441 103.696 22.7256C104.701 23.8821 105.204 25.1265 105.204 26.459C105.204 28.5959 104.852 30.8333 104.148 33.1714C103.469 35.4843 102.715 37.2692 101.885 38.5262C101.081 39.7832 100.251 40.4117 99.3965 40.4117C98.5669 40.4117 98.1521 39.8209 98.1521 38.6394C98.1521 37.7343 98.5669 35.9116 99.3965 33.1714C100.025 30.9088 100.339 29.2872 100.339 28.3068C100.339 27.3263 100.214 26.8361 99.9622 26.8361C99.6354 26.8361 99.3086 26.9995 98.9817 27.3263C98.68 27.6531 98.4286 27.9422 98.2275 28.1936C98.0264 28.445 97.7876 28.7718 97.511 29.1741C97.2596 29.5512 97.0334 29.9032 96.8322 30.23C96.6563 30.5317 96.4174 30.9339 96.1158 31.4367C95.8392 31.9144 95.6129 32.3166 95.437 32.6434C95.261 32.9451 95.0347 33.3474 94.7582 33.8502C92.4202 38.2245 90.5849 40.4117 89.2525 40.4117C88.7245 40.4117 88.0583 39.9592 87.2539 39.0542C86.4494 38.124 86.0471 37.4452 86.0471 37.0178C86.0471 36.7413 86.2231 36.1505 86.5751 35.2454C86.9522 34.3152 87.2161 33.6113 87.367 33.1337C87.543 32.6309 87.6812 32.1029 87.7818 31.5498C87.9075 30.9967 88.0081 30.406 88.0835 29.7775C88.1589 29.1238 88.2092 28.621 88.2343 28.269C88.2846 27.9171 88.3349 27.364 88.3852 26.6098C88.6114 23.3416 88.8 21.5315 88.9508 21.1795C89.1268 20.8276 89.3153 20.6516 89.5165 20.6516C90.4718 20.6516 91.3894 21.0538 92.2693 21.8583C93.1492 22.6377 93.5892 23.3541 93.5892 24.0078C93.5892 25.5665 93.1869 27.804 92.3824 30.7202C94.0166 27.8542 95.4998 25.5162 96.8322 23.7061C98.1898 21.8709 99.3337 20.9533 100.264 20.9533Z" fill="#5552FF"/>
</svg>
