<svg width="60" height="60" viewBox="0 0 60 60" fill="none" xmlns="http://www.w3.org/2000/svg">
<rect width="60" height="60" rx="30" fill="#ECF0FF"/>
<path d="M17.9034 34.1248C16.6267 34.1248 15.9883 33.4616 15.9883 32.1352V29.446H15.3404C15.2257 29.446 15.1454 29.4231 15.0996 29.3772C15.0575 29.3275 15.0365 29.2453 15.0365 29.1307V28.4254C15.0365 28.3107 15.0575 28.2305 15.0996 28.1846C15.1454 28.1349 15.2257 28.11 15.3404 28.11H15.9883V27.1869C15.9883 27.0952 16.0074 27.0244 16.0456 26.9748C16.2062 26.7645 16.4413 26.5371 16.7509 26.2924C16.8044 26.2542 16.8522 26.2351 16.8942 26.2351C16.9401 26.2351 16.986 26.2542 17.0318 26.2924C17.1962 26.4186 17.3338 26.5371 17.4447 26.6479C17.5593 26.7588 17.6568 26.8677 17.7371 26.9748C17.7753 27.0244 17.7944 27.0952 17.7944 27.1869V28.11H18.8093C18.924 28.11 19.0024 28.1349 19.0444 28.1846C19.0903 28.2305 19.1132 28.3107 19.1132 28.4254V29.1307C19.1132 29.2453 19.0903 29.3275 19.0444 29.3772C19.0024 29.4231 18.924 29.446 18.8093 29.446H17.7944V31.8198C17.7944 32.4314 18.0161 32.7372 18.4596 32.7372C18.5284 32.7372 18.5914 32.7315 18.6488 32.72C18.7061 32.7047 18.7558 32.6894 18.7978 32.6741C18.8781 32.6436 18.9335 32.6321 18.9641 32.6397C18.9985 32.6474 19.0291 32.6894 19.0559 32.7659L19.3884 33.6546C19.4228 33.7502 19.3999 33.819 19.3196 33.861C19.2623 33.8878 19.1228 33.9375 18.9011 34.0101C18.6832 34.0866 18.3506 34.1248 17.9034 34.1248ZM22.1636 29.1995H22.1865C22.4732 28.4044 22.9892 28.0068 23.7346 28.0068C23.8302 28.0068 23.9086 28.0126 23.9697 28.024C24.0309 28.0317 24.0729 28.0393 24.0959 28.047C24.1532 28.0661 24.1819 28.11 24.1819 28.1788V29.5607C24.1819 29.6792 24.1131 29.7117 23.9755 29.6582C23.9296 29.6391 23.8627 29.6199 23.7748 29.6008C23.6907 29.5779 23.5722 29.5664 23.4193 29.5664C23.0256 29.5664 22.7178 29.7117 22.4961 30.0022C22.2744 30.2889 22.1636 30.6807 22.1636 31.1776V33.6776C22.1636 33.7922 22.1387 33.8725 22.089 33.9184C22.0432 33.9604 21.9629 33.9814 21.8482 33.9814H20.6671C20.5524 33.9814 20.4702 33.9604 20.4205 33.9184C20.3746 33.8725 20.3517 33.7922 20.3517 33.6776V28.8726C20.3517 28.7809 20.3708 28.7102 20.409 28.6605C20.4893 28.5535 20.5849 28.4445 20.6957 28.3337C20.8104 28.2228 20.9499 28.1043 21.1143 27.9782C21.1449 27.9552 21.1755 27.9399 21.206 27.9323C21.2366 27.9247 21.2634 27.9208 21.2863 27.9208C21.3398 27.9208 21.3933 27.9399 21.4469 27.9782C21.7641 28.2266 21.9858 28.4388 22.112 28.6146C22.1464 28.6605 22.1636 28.714 22.1636 28.7752V29.1995ZM24.7782 26.1835C24.7782 26.1338 24.7935 26.0898 24.8241 26.0516C24.8546 26.0134 24.8948 25.9637 24.9445 25.9025C25.0515 25.7802 25.1757 25.6522 25.3172 25.5184C25.4586 25.3808 25.6019 25.2489 25.7472 25.1227C25.8389 25.0501 25.9077 25.0138 25.9536 25.0138C25.9995 25.0138 26.0702 25.0501 26.1658 25.1227C26.4754 25.3903 26.7391 25.6502 26.957 25.9025C27.0067 25.9599 27.0469 26.0096 27.0774 26.0516C27.1118 26.0898 27.129 26.1338 27.129 26.1835C27.129 26.2332 27.1118 26.2771 27.0774 26.3154C27.0469 26.3536 27.0048 26.4052 26.9513 26.4702C26.8481 26.5887 26.7277 26.7167 26.5901 26.8543C26.4525 26.9881 26.311 27.1162 26.1658 27.2385C26.1123 27.2844 26.0702 27.315 26.0396 27.3302C26.009 27.3417 25.9804 27.3474 25.9536 27.3474C25.9269 27.3474 25.8982 27.3417 25.8676 27.3302C25.8409 27.315 25.7969 27.2844 25.7357 27.2385C25.5828 27.1162 25.4395 26.9881 25.3057 26.8543C25.1719 26.7167 25.0515 26.5849 24.9445 26.4587C24.8948 26.3976 24.8546 26.3498 24.8241 26.3154C24.7935 26.2771 24.7782 26.2332 24.7782 26.1835ZM26.8538 33.6776C26.8538 33.7922 26.829 33.8725 26.7793 33.9184C26.7334 33.9604 26.6531 33.9814 26.5385 33.9814H25.3573C25.2426 33.9814 25.1604 33.9604 25.1108 33.9184C25.0649 33.8725 25.0419 33.7922 25.0419 33.6776V28.4139C25.0419 28.2993 25.0649 28.2209 25.1108 28.1788C25.1604 28.133 25.2426 28.11 25.3573 28.11H26.5385C26.6531 28.11 26.7334 28.133 26.7793 28.1788C26.829 28.2209 26.8538 28.2993 26.8538 28.4139V33.6776ZM32.0658 27.9667C32.6239 27.9667 33.0826 28.0928 33.4419 28.3451C33.8051 28.5936 34.0746 28.9376 34.2504 29.3772C34.4301 29.813 34.5199 30.3137 34.5199 30.8795C34.5199 31.4911 34.4148 32.0415 34.2045 32.5308C33.9981 33.0201 33.6923 33.4081 33.2871 33.6948C32.8819 33.9814 32.3793 34.1248 31.7791 34.1248C31.4695 34.1248 31.2134 34.0885 31.0108 34.0158C30.8121 33.947 30.6515 33.8649 30.5292 33.7693C30.4107 33.6699 30.317 33.5801 30.2482 33.4998H30.2253V35.9424C30.2253 36.0341 30.2062 36.1049 30.168 36.1546C30.0074 36.3648 29.7723 36.5922 29.4627 36.8369C29.4092 36.8751 29.3614 36.8942 29.3194 36.8942C29.2735 36.8942 29.2257 36.8751 29.176 36.8369C29.0116 36.7107 28.8721 36.5922 28.7574 36.4814C28.6466 36.3705 28.551 36.2616 28.4708 36.1546C28.4325 36.1049 28.4134 36.0341 28.4134 35.9424V28.8726C28.4134 28.7809 28.4325 28.7102 28.4708 28.6605C28.551 28.5535 28.6466 28.4445 28.7574 28.3337C28.8721 28.2228 29.0116 28.1043 29.176 27.9782C29.2257 27.9399 29.2773 27.9208 29.3308 27.9208C29.3805 27.9208 29.4321 27.9399 29.4856 27.9782C29.6462 28.1043 29.7838 28.2247 29.8985 28.3394C30.0131 28.4541 30.1144 28.5726 30.2024 28.6949H30.231C30.296 28.6146 30.3954 28.5171 30.5292 28.4025C30.663 28.2878 30.8522 28.1865 31.0968 28.0986C31.3453 28.0107 31.6683 27.9667 32.0658 27.9667ZM31.3606 32.6627C31.7734 32.6627 32.0926 32.5193 32.3181 32.2326C32.5475 31.9421 32.6622 31.5236 32.6622 30.9769C32.6622 29.9449 32.2379 29.4288 31.3893 29.4288C31.0299 29.4288 30.7643 29.5034 30.5923 29.6524C30.4202 29.7977 30.2979 29.9525 30.2253 30.1169V31.3611C30.2253 31.7319 30.3209 32.0415 30.512 32.29C30.7031 32.5384 30.986 32.6627 31.3606 32.6627ZM39.4051 27.9667C39.9632 27.9667 40.4219 28.0928 40.7812 28.3451C41.1443 28.5936 41.4138 28.9376 41.5897 29.3772C41.7693 29.813 41.8592 30.3137 41.8592 30.8795C41.8592 31.4911 41.754 32.0415 41.5438 32.5308C41.3374 33.0201 41.0316 33.4081 40.6264 33.6948C40.2212 33.9814 39.7185 34.1248 39.1184 34.1248C38.8088 34.1248 38.5527 34.0885 38.3501 34.0158C38.1513 33.947 37.9908 33.8649 37.8684 33.7693C37.7499 33.6699 37.6563 33.5801 37.5875 33.4998H37.5645V35.9424C37.5645 36.0341 37.5454 36.1049 37.5072 36.1546C37.3467 36.3648 37.1116 36.5922 36.802 36.8369C36.7484 36.8751 36.7007 36.8942 36.6586 36.8942C36.6127 36.8942 36.565 36.8751 36.5153 36.8369C36.3509 36.7107 36.2114 36.5922 36.0967 36.4814C35.9858 36.3705 35.8903 36.2616 35.81 36.1546C35.7718 36.1049 35.7527 36.0341 35.7527 35.9424V28.8726C35.7527 28.7809 35.7718 28.7102 35.81 28.6605C35.8903 28.5535 35.9858 28.4445 36.0967 28.3337C36.2114 28.2228 36.3509 28.1043 36.5153 27.9782C36.565 27.9399 36.6166 27.9208 36.6701 27.9208C36.7198 27.9208 36.7714 27.9399 36.8249 27.9782C36.9854 28.1043 37.123 28.2247 37.2377 28.3394C37.3524 28.4541 37.4537 28.5726 37.5416 28.6949H37.5703C37.6353 28.6146 37.7346 28.5171 37.8684 28.4025C38.0022 28.2878 38.1914 28.1865 38.4361 28.0986C38.6845 28.0107 39.0075 27.9667 39.4051 27.9667ZM38.6998 32.6627C39.1127 32.6627 39.4318 32.5193 39.6574 32.2326C39.8867 31.9421 40.0014 31.5236 40.0014 30.9769C40.0014 29.9449 39.5771 29.4288 38.7285 29.4288C38.3692 29.4288 38.1035 29.5034 37.9315 29.6524C37.7595 29.7977 37.6372 29.9525 37.5645 30.1169V31.3611C37.5645 31.7319 37.6601 32.0415 37.8512 32.29C38.0424 32.5384 38.3252 32.6627 38.6998 32.6627ZM42.8282 26.1835C42.8282 26.1338 42.8435 26.0898 42.874 26.0516C42.9046 26.0134 42.9448 25.9637 42.9944 25.9025C43.1015 25.7802 43.2257 25.6522 43.3671 25.5184C43.5086 25.3808 43.6519 25.2489 43.7972 25.1227C43.8889 25.0501 43.9577 25.0138 44.0036 25.0138C44.0495 25.0138 44.1202 25.0501 44.2157 25.1227C44.5254 25.3903 44.7891 25.6502 45.007 25.9025C45.0567 25.9599 45.0968 26.0096 45.1274 26.0516C45.1618 26.0898 45.179 26.1338 45.179 26.1835C45.179 26.2332 45.1618 26.2771 45.1274 26.3154C45.0968 26.3536 45.0548 26.4052 45.0013 26.4702C44.8981 26.5887 44.7777 26.7167 44.64 26.8543C44.5024 26.9881 44.361 27.1162 44.2157 27.2385C44.1622 27.2844 44.1202 27.315 44.0896 27.3302C44.059 27.3417 44.0303 27.3474 44.0036 27.3474C43.9768 27.3474 43.9482 27.3417 43.9176 27.3302C43.8908 27.315 43.8469 27.2844 43.7857 27.2385C43.6328 27.1162 43.4895 26.9881 43.3557 26.8543C43.2219 26.7167 43.1015 26.5849 42.9944 26.4587C42.9448 26.3976 42.9046 26.3498 42.874 26.3154C42.8435 26.2771 42.8282 26.2332 42.8282 26.1835ZM44.9038 33.6776C44.9038 33.7922 44.879 33.8725 44.8293 33.9184C44.7834 33.9604 44.7031 33.9814 44.5884 33.9814H43.4073C43.2926 33.9814 43.2104 33.9604 43.1607 33.9184C43.1149 33.8725 43.0919 33.7922 43.0919 33.6776V28.4139C43.0919 28.2993 43.1149 28.2209 43.1607 28.1788C43.2104 28.133 43.2926 28.11 43.4073 28.11H44.5884C44.7031 28.11 44.7834 28.133 44.8293 28.1788C44.879 28.2209 44.9038 28.2993 44.9038 28.4139V33.6776ZM52.1398 30.329V33.6776C52.1398 33.7922 52.115 33.8725 52.0653 33.9184C52.0194 33.9604 51.9392 33.9814 51.8245 33.9814H50.6433C50.5286 33.9814 50.4465 33.9604 50.3968 33.9184C50.3509 33.8725 50.328 33.7922 50.328 33.6776V30.6272C50.328 30.2105 50.24 29.9066 50.0642 29.7155C49.8884 29.5244 49.6495 29.4288 49.3475 29.4288C49.0455 29.4288 48.8123 29.4938 48.648 29.6238C48.4874 29.7537 48.3632 29.9181 48.2753 30.1169V33.6776C48.2753 33.7922 48.2504 33.8725 48.2007 33.9184C48.1549 33.9604 48.0746 33.9814 47.9599 33.9814H46.7787C46.6641 33.9814 46.5819 33.9604 46.5322 33.9184C46.4863 33.8725 46.4634 33.7922 46.4634 33.6776V28.8726C46.4634 28.7809 46.4825 28.7102 46.5207 28.6605C46.601 28.5535 46.6966 28.4445 46.8074 28.3337C46.9221 28.2228 47.0616 28.1043 47.226 27.9782C47.2757 27.9399 47.3235 27.9208 47.3693 27.9208C47.4114 27.9208 47.4592 27.9399 47.5127 27.9782C47.6732 28.1043 47.8108 28.2247 47.9255 28.3394C48.0402 28.4541 48.1415 28.5726 48.2294 28.6949H48.2581C48.323 28.6108 48.4205 28.5133 48.5505 28.4025C48.6805 28.2878 48.862 28.1865 49.0952 28.0986C49.3322 28.0107 49.6342 27.9667 50.0011 27.9667C50.3605 27.9667 50.7026 28.0393 51.0275 28.1846C51.3524 28.3298 51.6181 28.5745 51.8245 28.9185C52.0347 29.2625 52.1398 29.7327 52.1398 30.329Z" fill="#202C31"/>
<path d="M53.8822 18.7633L54.0934 18.1971C54.269 17.7267 53.9867 17.2067 53.5105 17.1229L52.9373 17.022C52.4149 16.93 51.8782 17.0169 51.407 17.27L48.3062 18.9339C44.7038 20.8671 41.4088 23.3708 38.538 26.3565C38.317 26.5862 38.5274 26.9742 38.8297 26.8938C42.754 25.8499 46.5006 24.1781 49.9363 21.9377L52.8934 20.0094C53.343 19.7163 53.6897 19.2792 53.8822 18.7633Z" fill="url(#paint0_linear_292_5049)"/>
<path d="M49.6247 19.0601L40.5163 16.0368C39.8317 15.8095 39.3089 16.687 39.8059 17.2293L44.3511 22.1874L49.6247 19.0601Z" fill="url(#paint1_linear_292_5049)"/>
<path d="M50.5089 20.6897L48.3177 30.4135C48.153 31.1445 47.1644 31.1633 46.9742 30.4392L45.2354 23.817L50.5089 20.6897Z" fill="url(#paint2_linear_292_5049)"/>
<path d="M40.7643 24.9993L37.4488 23.8989C37.1995 23.8162 37.0093 24.1356 37.1901 24.333L38.8447 26.1376L40.7643 24.9993Z" fill="url(#paint3_linear_292_5049)"/>
<path d="M41.0857 25.5923L40.288 29.1318C40.228 29.398 39.868 29.4047 39.7989 29.1412L39.166 26.7308L41.0857 25.5923Z" fill="url(#paint4_linear_292_5049)"/>
<path d="M38.4011 26.862C38.4011 26.862 18.2175 39.6437 12.5869 37.2695C6.95631 34.8955 16.9488 28.5127 16.9488 28.5127C16.9488 28.5127 1.69624 36.0736 8.27446 41.5259C15.69 47.6726 38.4011 26.862 38.4011 26.862Z" fill="url(#paint5_linear_292_5049)"/>
<defs>
<linearGradient id="paint0_linear_292_5049" x1="46.2961" y1="16.9863" x2="46.2961" y2="26.9046" gradientUnits="userSpaceOnUse">
<stop stop-color="#5552FF"/>
<stop offset="1" stop-color="#333199"/>
</linearGradient>
<linearGradient id="paint1_linear_292_5049" x1="44.617" y1="16" x2="44.617" y2="22.1874" gradientUnits="userSpaceOnUse">
<stop stop-color="#5552FF"/>
<stop offset="1" stop-color="#333199"/>
</linearGradient>
<linearGradient id="paint2_linear_292_5049" x1="47.8721" y1="20.6897" x2="47.8721" y2="30.9721" gradientUnits="userSpaceOnUse">
<stop stop-color="#5552FF"/>
<stop offset="1" stop-color="#333199"/>
</linearGradient>
<linearGradient id="paint3_linear_292_5049" x1="38.9415" y1="23.8855" x2="38.9415" y2="26.1376" gradientUnits="userSpaceOnUse">
<stop stop-color="#5552FF"/>
<stop offset="1" stop-color="#333199"/>
</linearGradient>
<linearGradient id="paint4_linear_292_5049" x1="40.1258" y1="25.5923" x2="40.1258" y2="29.3352" gradientUnits="userSpaceOnUse">
<stop stop-color="#5552FF"/>
<stop offset="1" stop-color="#333199"/>
</linearGradient>
<linearGradient id="paint5_linear_292_5049" x1="22.2005" y1="27.9198" x2="23.1161" y2="41.9421" gradientUnits="userSpaceOnUse">
<stop stop-color="#5552FF"/>
<stop offset="1" stop-color="#333199"/>
</linearGradient>
</defs>
</svg>
