<svg width="25" height="24" viewBox="0 0 25 24" fill="none" xmlns="http://www.w3.org/2000/svg">
<g id="famicons:restaurant">
<path id="Vector" d="M17.2611 10.4972C17.7539 10.4986 18.242 10.4021 18.6973 10.2135C19.1525 10.0249 19.5658 9.74789 19.9133 9.39845L23.5227 5.79142C23.8081 5.50595 23.8344 5.04142 23.5625 4.74189C23.4943 4.66663 23.4114 4.60603 23.319 4.56376C23.2267 4.52148 23.1267 4.49842 23.0251 4.49596C22.9235 4.49351 22.8225 4.51171 22.7282 4.54948C22.6339 4.58724 22.5482 4.64377 22.4764 4.71564L19.2594 7.93032C19.1514 8.03821 19.0049 8.09881 18.8523 8.09881C18.6996 8.09881 18.5532 8.03821 18.4452 7.93032C18.2206 7.70626 18.2328 7.32751 18.4569 7.10345L21.6599 3.90048C21.7317 3.82868 21.7881 3.74305 21.8258 3.64877C21.8636 3.5545 21.8817 3.45355 21.8793 3.35204C21.8768 3.25054 21.8538 3.15058 21.8116 3.05824C21.7693 2.96591 21.7088 2.8831 21.6336 2.81485C21.4979 2.69174 21.3209 2.624 21.1377 2.62501C21.0348 2.62506 20.933 2.64536 20.838 2.68478C20.743 2.72419 20.6567 2.78193 20.5841 2.8547L17.3839 6.05439C17.2759 6.16227 17.1295 6.22287 16.9768 6.22287C16.8241 6.22287 16.6777 6.16227 16.5697 6.05439C16.3456 5.83032 16.3574 5.45157 16.5814 5.22751L19.7844 2.02548C19.8562 1.95368 19.9127 1.86805 19.9504 1.77377C19.9881 1.6795 20.0063 1.57855 20.0038 1.47704C20.0014 1.37554 19.9783 1.27558 19.9361 1.18324C19.8939 1.09091 19.8333 1.0081 19.7581 0.939855C19.6224 0.816743 19.4454 0.749003 19.2622 0.750011C19.0545 0.750257 18.8554 0.832859 18.7086 0.979699L15.1016 4.58673C14.7521 4.93426 14.4751 5.34766 14.2865 5.80299C14.0979 6.25832 14.0015 6.74654 14.0028 7.23939V7.62517C14.0029 7.7238 13.9835 7.82148 13.9458 7.91261C13.9081 8.00374 13.8527 8.08654 13.783 8.15626L12.1138 9.82595C12.0964 9.84338 12.0757 9.85721 12.0529 9.86665C12.0301 9.87608 12.0057 9.88094 11.9811 9.88094C11.9565 9.88094 11.9321 9.87608 11.9093 9.86665C11.8865 9.85721 11.8659 9.84338 11.8485 9.82595L3.72595 1.70298C3.58576 1.56263 3.39568 1.48354 3.19732 1.48301C2.99895 1.48248 2.80845 1.56057 2.66752 1.70017C1.95736 2.40376 1.57814 3.39704 1.57814 4.5722C1.57345 6.51282 2.59345 8.74407 4.24017 10.3884L8.24564 14.3939C8.81497 14.962 9.58636 15.2811 10.3906 15.2813C10.647 15.2814 10.9024 15.2486 11.1505 15.1838C11.2128 15.1674 11.2769 15.1591 11.3413 15.1589C11.5295 15.1589 11.7109 15.2301 11.8489 15.3581L12.3828 15.8513C12.5205 15.9919 12.5979 16.1808 12.5985 16.3777V16.6374C12.5971 17.2277 12.8291 17.7947 13.2439 18.2147L17.465 22.507L17.4692 22.5117C17.9377 22.9802 18.5731 23.2433 19.2356 23.2433C19.8982 23.2432 20.5335 22.98 21.002 22.5115C21.4704 22.043 21.7335 21.4076 21.7335 20.7451C21.7335 20.0826 21.4702 19.4472 21.0017 18.9788L14.6745 12.6516C14.6571 12.6342 14.6433 12.6135 14.6338 12.5907C14.6244 12.568 14.6196 12.5436 14.6196 12.5189C14.6196 12.4943 14.6244 12.4699 14.6338 12.4471C14.6433 12.4244 14.6571 12.4037 14.6745 12.3863L16.3438 10.717C16.4134 10.6473 16.4961 10.592 16.5872 10.5543C16.6782 10.5166 16.7758 10.4972 16.8744 10.4972H17.2611Z" fill="black"/>
<path id="Vector_2" d="M10.3913 16.7812C9.19047 16.7788 8.03909 16.3029 7.18687 15.457L6.53719 14.8073C6.46689 14.7372 6.37164 14.6978 6.27234 14.6978C6.17304 14.6978 6.0778 14.7372 6.0075 14.8073L2.02312 18.7711C1.31297 19.4812 1.05937 20.5265 1.41094 21.5503C1.43066 21.608 1.45398 21.6643 1.48078 21.719C1.95375 22.6875 2.87156 23.25 3.87562 23.25C4.22092 23.2508 4.56296 23.1832 4.88191 23.0509C5.20087 22.9186 5.4904 22.7243 5.73375 22.4794L11.0475 17.1403C11.0699 17.1175 11.087 17.0901 11.0977 17.0599C11.1084 17.0298 11.1124 16.9977 11.1094 16.9659V16.9537C11.1073 16.9245 11.0993 16.896 11.0859 16.8699C11.0725 16.8439 11.054 16.8208 11.0314 16.8021C11.0089 16.7834 10.9827 16.7695 10.9547 16.7611C10.9266 16.7528 10.8971 16.7502 10.868 16.7536C10.7097 16.7711 10.5505 16.7804 10.3913 16.7812Z" fill="black"/>
</g>
</svg>
