<svg width="73" height="73" viewBox="0 0 73 73" fill="none" xmlns="http://www.w3.org/2000/svg">
<rect width="73" height="73" rx="36.5" fill="#FFDFD8"/>
<path d="M47 38V34C47 29 45 27 40 27H34C29 27 27 29 27 34V40C27 45 29 47 34 47H38" stroke="#FF7051" stroke-width="1.5" stroke-linecap="round" stroke-linejoin="round"/>
<path d="M32.3301 39.49L34.7101 36.4C35.0501 35.96 35.6801 35.88 36.1201 36.22L37.9501 37.66C38.3901 38 39.0201 37.92 39.3601 37.49L41.6701 34.51" stroke="#FF7051" stroke-width="1.5" stroke-linecap="round" stroke-linejoin="round"/>
<path d="M44.4792 40.8199L44.7592 41.3899C44.8992 41.6699 45.2492 41.9299 45.5592 41.9899L45.9392 42.0499C47.0792 42.2399 47.3492 43.0799 46.5292 43.9099L46.1792 44.2599C45.9492 44.4999 45.8192 44.9599 45.8892 45.2799L45.9392 45.4899C46.2492 46.8699 45.5192 47.3999 44.3192 46.6799L44.0592 46.5299C43.7492 46.3499 43.2492 46.3499 42.9392 46.5299L42.6792 46.6799C41.4692 47.4099 40.7392 46.8699 41.0592 45.4899L41.1092 45.2799C41.1792 44.9599 41.0492 44.4999 40.8192 44.2599L40.4692 43.9099C39.6492 43.0799 39.9192 42.2399 41.0592 42.0499L41.4392 41.9899C41.7392 41.9399 42.0992 41.6699 42.2392 41.3899L42.5192 40.8199C43.0592 39.7299 43.9392 39.7299 44.4792 40.8199Z" stroke="#FF7051" stroke-width="1.5" stroke-linecap="round" stroke-linejoin="round"/>
</svg>
