<svg width="14" height="14" viewBox="0 0 14 14" fill="none" xmlns="http://www.w3.org/2000/svg">
<path d="M7.00033 1.1665C3.79199 1.1665 1.16699 3.7915 1.16699 6.99984C1.16699 10.2082 3.79199 12.8332 7.00033 12.8332C10.2087 12.8332 12.8337 10.2082 12.8337 6.99984C12.8337 3.7915 10.2087 1.1665 7.00033 1.1665ZM7.00033 11.6665C4.42783 11.6665 2.33366 9.57234 2.33366 6.99984C2.33366 4.42734 4.42783 2.33317 7.00033 2.33317C9.57283 2.33317 11.667 4.42734 11.667 6.99984C11.667 9.57234 9.57283 11.6665 7.00033 11.6665ZM9.67782 4.4215L5.83366 8.26567L4.32283 6.76067L3.50033 7.58317L5.83366 9.9165L10.5003 5.24984L9.67782 4.4215Z" fill="#126B12"/>
</svg>
